<svg xmlns="http://www.w3.org/2000/svg" width="375" viewBox="0 0 375 375" height="375" version="1.0"><defs><clipPath id="a"><path d="M 115 84 L 260 84 L 260 348.46875 L 115 348.46875 Z M 115 84"/></clipPath><clipPath id="b"><path d="M 0 26.71875 L 375 26.71875 L 375 250 L 0 250 Z M 0 26.71875"/></clipPath></defs><g clip-path="url(#a)"><path fill="#FFF" d="M 245.703125 229.683594 L 245.703125 173.261719 C 245.699219 170.90625 245.390625 168.589844 244.78125 166.3125 C 244.171875 164.039062 243.28125 161.878906 242.109375 159.835938 L 203.667969 93.742188 C 203.46875 93.394531 203.253906 93.050781 203.03125 92.714844 C 202.804688 92.378906 202.570312 92.054688 202.324219 91.734375 C 202.078125 91.414062 201.820312 91.101562 201.554688 90.800781 C 201.289062 90.496094 201.011719 90.203125 200.726562 89.917969 C 200.441406 89.632812 200.148438 89.355469 199.84375 89.089844 C 199.539062 88.824219 199.226562 88.570312 198.90625 88.324219 C 198.585938 88.078125 198.261719 87.84375 197.925781 87.621094 C 197.589844 87.398438 197.246094 87.183594 196.898438 86.984375 C 196.546875 86.78125 196.191406 86.59375 195.832031 86.414062 C 195.46875 86.234375 195.101562 86.070312 194.726562 85.914062 C 194.355469 85.761719 193.976562 85.617188 193.597656 85.488281 C 193.214844 85.359375 192.828125 85.242188 192.4375 85.140625 C 192.050781 85.035156 191.65625 84.941406 191.261719 84.863281 C 190.867188 84.785156 190.46875 84.71875 190.066406 84.667969 C 189.667969 84.617188 189.265625 84.574219 188.863281 84.550781 C 188.460938 84.523438 188.058594 84.511719 187.65625 84.511719 C 187.253906 84.511719 186.851562 84.523438 186.449219 84.550781 C 186.046875 84.574219 185.644531 84.617188 185.246094 84.667969 C 184.84375 84.71875 184.445312 84.785156 184.050781 84.863281 C 183.65625 84.941406 183.261719 85.035156 182.875 85.140625 C 182.484375 85.242188 182.097656 85.359375 181.714844 85.488281 C 181.335938 85.617188 180.957031 85.761719 180.585938 85.914062 C 180.210938 86.070312 179.84375 86.234375 179.484375 86.414062 C 179.121094 86.59375 178.765625 86.78125 178.414062 86.984375 C 178.066406 87.183594 177.722656 87.398438 177.386719 87.621094 C 177.050781 87.84375 176.726562 88.078125 176.40625 88.324219 C 176.085938 88.570312 175.773438 88.824219 175.46875 89.089844 C 175.164062 89.355469 174.871094 89.632812 174.585938 89.917969 C 174.300781 90.203125 174.023438 90.496094 173.757812 90.800781 C 173.492188 91.101562 173.234375 91.414062 172.988281 91.734375 C 172.742188 92.054688 172.507812 92.378906 172.285156 92.714844 C 172.058594 93.050781 171.84375 93.394531 171.644531 93.742188 L 133.203125 159.835938 C 132.03125 161.878906 131.140625 164.039062 130.53125 166.3125 C 129.921875 168.589844 129.613281 170.90625 129.609375 173.261719 L 129.609375 229.683594 C 128.582031 230.152344 127.597656 230.691406 126.648438 231.300781 C 125.699219 231.910156 124.800781 232.582031 123.949219 233.320312 C 123.097656 234.058594 122.300781 234.851562 121.5625 235.703125 C 120.824219 236.554688 120.148438 237.453125 119.539062 238.402344 C 118.929688 239.351562 118.390625 240.335938 117.921875 241.363281 C 117.453125 242.386719 117.0625 243.441406 116.742188 244.523438 C 116.425781 245.605469 116.1875 246.703125 116.027344 247.820312 C 115.863281 248.933594 115.785156 250.054688 115.785156 251.183594 L 115.785156 261.886719 C 115.785156 263.140625 115.890625 264.390625 116.089844 265.628906 C 116.289062 266.871094 116.585938 268.085938 116.980469 269.277344 C 117.375 270.46875 117.859375 271.625 118.433594 272.742188 C 119.011719 273.855469 119.671875 274.917969 120.417969 275.929688 C 121.160156 276.941406 121.980469 277.886719 122.875 278.769531 C 123.769531 279.648438 124.730469 280.453125 125.75 281.183594 C 126.773438 281.910156 127.847656 282.554688 128.96875 283.113281 C 130.09375 283.671875 131.257812 284.136719 132.453125 284.511719 L 132.453125 326.539062 C 132.453125 327.257812 132.492188 327.972656 132.5625 328.6875 C 132.632812 329.402344 132.738281 330.109375 132.878906 330.8125 C 133.019531 331.515625 133.195312 332.210938 133.402344 332.898438 C 133.609375 333.582031 133.851562 334.257812 134.128906 334.917969 C 134.402344 335.582031 134.707031 336.230469 135.046875 336.863281 C 135.386719 337.496094 135.753906 338.109375 136.152344 338.703125 C 136.550781 339.300781 136.976562 339.875 137.429688 340.429688 C 137.886719 340.984375 138.367188 341.515625 138.875 342.023438 C 139.378906 342.53125 139.910156 343.011719 140.464844 343.464844 C 141.019531 343.921875 141.59375 344.347656 142.191406 344.746094 C 142.785156 345.144531 143.398438 345.515625 144.03125 345.851562 C 144.664062 346.191406 145.3125 346.496094 145.972656 346.773438 C 146.636719 347.046875 147.308594 347.289062 147.996094 347.496094 C 148.679688 347.707031 149.375 347.878906 150.078125 348.019531 C 150.78125 348.160156 151.488281 348.269531 152.203125 348.339844 C 152.914062 348.410156 153.628906 348.445312 154.347656 348.445312 L 220.964844 348.445312 C 221.683594 348.445312 222.398438 348.410156 223.109375 348.339844 C 223.824219 348.269531 224.53125 348.160156 225.234375 348.019531 C 225.9375 347.878906 226.632812 347.707031 227.316406 347.496094 C 228.003906 347.289062 228.675781 347.046875 229.339844 346.773438 C 230 346.496094 230.648438 346.191406 231.28125 345.851562 C 231.914062 345.515625 232.527344 345.144531 233.121094 344.746094 C 233.71875 344.347656 234.292969 343.921875 234.847656 343.464844 C 235.402344 343.011719 235.933594 342.53125 236.4375 342.023438 C 236.945312 341.515625 237.425781 340.984375 237.882812 340.429688 C 238.335938 339.875 238.761719 339.300781 239.160156 338.703125 C 239.558594 338.109375 239.929688 337.496094 240.265625 336.863281 C 240.605469 336.230469 240.910156 335.582031 241.183594 334.917969 C 241.460938 334.257812 241.703125 333.582031 241.910156 332.898438 C 242.117188 332.210938 242.292969 331.515625 242.433594 330.8125 C 242.574219 330.109375 242.679688 329.402344 242.75 328.6875 C 242.820312 327.972656 242.859375 327.257812 242.859375 326.539062 L 242.859375 284.511719 C 244.058594 284.136719 245.21875 283.671875 246.34375 283.113281 C 247.464844 282.554688 248.539062 281.910156 249.5625 281.183594 C 250.582031 280.453125 251.542969 279.648438 252.4375 278.769531 C 253.332031 277.886719 254.152344 276.941406 254.894531 275.929688 C 255.640625 274.917969 256.300781 273.855469 256.878906 272.742188 C 257.453125 271.625 257.9375 270.472656 258.332031 269.277344 C 258.726562 268.085938 259.023438 266.871094 259.222656 265.628906 C 259.425781 264.390625 259.527344 263.140625 259.527344 261.886719 L 259.527344 251.183594 C 259.527344 250.054688 259.449219 248.933594 259.285156 247.820312 C 259.125 246.703125 258.886719 245.605469 258.570312 244.523438 C 258.25 243.441406 257.859375 242.386719 257.390625 241.363281 C 256.921875 240.335938 256.382812 239.351562 255.773438 238.402344 C 255.164062 237.453125 254.488281 236.554688 253.75 235.703125 C 253.011719 234.851562 252.21875 234.058594 251.363281 233.320312 C 250.511719 232.582031 249.613281 231.910156 248.664062 231.300781 C 247.714844 230.691406 246.730469 230.152344 245.703125 229.683594 Z M 142.117188 173.261719 C 142.117188 170.722656 142.753906 168.355469 144.027344 166.15625 L 181.402344 101.847656 L 181.402344 192.507812 C 181.402344 192.917969 181.441406 193.324219 181.519531 193.726562 C 181.601562 194.132812 181.71875 194.523438 181.878906 194.902344 C 182.035156 195.28125 182.226562 195.640625 182.457031 195.984375 C 182.683594 196.324219 182.941406 196.640625 183.234375 196.933594 C 183.523438 197.222656 183.839844 197.484375 184.179688 197.710938 C 184.523438 197.9375 184.882812 198.132812 185.261719 198.289062 C 185.640625 198.445312 186.03125 198.566406 186.4375 198.644531 C 186.839844 198.726562 187.246094 198.765625 187.65625 198.765625 C 188.066406 198.765625 188.472656 198.726562 188.875 198.644531 C 189.28125 198.566406 189.671875 198.445312 190.050781 198.289062 C 190.429688 198.132812 190.789062 197.9375 191.132812 197.710938 C 191.472656 197.484375 191.789062 197.222656 192.078125 196.933594 C 192.371094 196.640625 192.628906 196.324219 192.855469 195.984375 C 193.085938 195.640625 193.277344 195.28125 193.433594 194.902344 C 193.59375 194.523438 193.710938 194.132812 193.792969 193.726562 C 193.871094 193.324219 193.910156 192.917969 193.910156 192.507812 L 193.910156 101.847656 L 231.285156 166.15625 C 232.558594 168.355469 233.195312 170.722656 233.195312 173.261719 L 233.195312 227.492188 L 142.117188 227.492188 Z M 230.347656 326.539062 C 230.347656 327.15625 230.289062 327.765625 230.167969 328.371094 C 230.046875 328.976562 229.871094 329.5625 229.632812 330.132812 C 229.398438 330.703125 229.109375 331.242188 228.765625 331.757812 C 228.425781 332.269531 228.035156 332.742188 227.601562 333.179688 C 227.164062 333.613281 226.691406 334.003906 226.179688 334.347656 C 225.664062 334.6875 225.125 334.976562 224.554688 335.214844 C 223.988281 335.449219 223.398438 335.628906 222.796875 335.75 C 222.191406 335.867188 221.582031 335.929688 220.964844 335.929688 L 154.347656 335.929688 C 153.730469 335.929688 153.121094 335.867188 152.515625 335.75 C 151.914062 335.628906 151.324219 335.449219 150.757812 335.214844 C 150.1875 334.976562 149.648438 334.6875 149.132812 334.347656 C 148.621094 334.003906 148.148438 333.613281 147.710938 333.179688 C 147.277344 332.742188 146.886719 332.269531 146.546875 331.757812 C 146.203125 331.242188 145.914062 330.703125 145.679688 330.132812 C 145.441406 329.5625 145.265625 328.976562 145.144531 328.371094 C 145.023438 327.765625 144.964844 327.15625 144.964844 326.539062 L 144.964844 285.574219 L 230.347656 285.574219 Z M 247.019531 261.886719 C 247.015625 262.621094 246.945312 263.34375 246.800781 264.0625 C 246.65625 264.78125 246.441406 265.480469 246.160156 266.15625 C 245.878906 266.835938 245.535156 267.476562 245.128906 268.085938 C 244.71875 268.695312 244.257812 269.257812 243.738281 269.777344 C 243.222656 270.296875 242.660156 270.757812 242.050781 271.167969 C 241.441406 271.574219 240.796875 271.917969 240.121094 272.199219 C 239.445312 272.480469 238.746094 272.695312 238.027344 272.839844 C 237.3125 272.984375 236.585938 273.054688 235.851562 273.058594 L 139.460938 273.058594 C 138.726562 273.058594 138 272.984375 137.285156 272.839844 C 136.566406 272.695312 135.867188 272.480469 135.191406 272.199219 C 134.515625 271.917969 133.871094 271.574219 133.261719 271.167969 C 132.65625 270.757812 132.089844 270.296875 131.574219 269.777344 C 131.054688 269.257812 130.59375 268.695312 130.183594 268.085938 C 129.777344 267.476562 129.433594 266.835938 129.152344 266.15625 C 128.871094 265.480469 128.65625 264.78125 128.511719 264.0625 C 128.371094 263.34375 128.296875 262.621094 128.292969 261.886719 L 128.292969 251.183594 C 128.296875 250.449219 128.371094 249.726562 128.511719 249.007812 C 128.65625 248.289062 128.871094 247.589844 129.152344 246.914062 C 129.433594 246.234375 129.777344 245.59375 130.183594 244.984375 C 130.59375 244.375 131.054688 243.808594 131.574219 243.292969 C 132.089844 242.773438 132.65625 242.3125 133.261719 241.902344 C 133.871094 241.496094 134.515625 241.152344 135.191406 240.871094 C 135.867188 240.589844 136.566406 240.375 137.285156 240.230469 C 138 240.085938 138.726562 240.011719 139.460938 240.011719 L 235.851562 240.011719 C 236.585938 240.011719 237.3125 240.085938 238.027344 240.230469 C 238.746094 240.375 239.445312 240.589844 240.121094 240.871094 C 240.796875 241.152344 241.441406 241.496094 242.050781 241.902344 C 242.660156 242.3125 243.222656 242.773438 243.738281 243.292969 C 244.257812 243.808594 244.71875 244.375 245.128906 244.984375 C 245.535156 245.59375 245.878906 246.234375 246.160156 246.914062 C 246.441406 247.589844 246.65625 248.289062 246.800781 249.007812 C 246.945312 249.726562 247.015625 250.449219 247.019531 251.183594 Z M 247.019531 261.886719"/></g><g clip-path="url(#b)"><path fill="#FFF" d="M 360.769531 208.183594 C 360.617188 204.027344 360.320312 199.878906 359.871094 195.742188 C 359.421875 191.601562 358.824219 187.488281 358.082031 183.394531 C 357.335938 179.296875 356.445312 175.234375 355.410156 171.207031 C 354.371094 167.175781 353.191406 163.1875 351.867188 159.242188 C 350.542969 155.296875 349.082031 151.40625 347.476562 147.566406 C 345.875 143.726562 344.132812 139.949219 342.257812 136.234375 C 340.382812 132.519531 338.375 128.875 336.238281 125.304688 C 334.101562 121.734375 331.839844 118.246094 329.449219 114.839844 C 327.0625 111.433594 324.554688 108.117188 321.925781 104.890625 C 319.300781 101.664062 316.558594 98.535156 313.707031 95.507812 C 310.855469 92.476562 307.898438 89.554688 304.835938 86.738281 C 301.773438 83.921875 298.613281 81.21875 295.359375 78.628906 C 292.101562 76.042969 288.757812 73.574219 285.320312 71.226562 C 281.886719 68.878906 278.375 66.65625 274.78125 64.5625 C 271.1875 62.46875 267.519531 60.503906 263.785156 58.675781 C 260.050781 56.84375 256.253906 55.148438 252.398438 53.589844 L 342.472656 53.589844 C 342.738281 54.003906 343.03125 54.402344 343.339844 54.78125 C 343.652344 55.160156 343.984375 55.523438 344.332031 55.867188 C 344.683594 56.210938 345.054688 56.535156 345.441406 56.839844 C 345.828125 57.140625 346.230469 57.421875 346.648438 57.679688 C 347.066406 57.9375 347.496094 58.171875 347.941406 58.382812 C 348.382812 58.59375 348.839844 58.78125 349.304688 58.941406 C 349.765625 59.101562 350.238281 59.238281 350.71875 59.34375 C 351.199219 59.453125 351.679688 59.535156 352.167969 59.589844 C 352.65625 59.644531 353.148438 59.671875 353.640625 59.671875 C 354.128906 59.675781 354.621094 59.648438 355.109375 59.59375 C 355.597656 59.542969 356.082031 59.460938 356.5625 59.355469 C 357.039062 59.246094 357.511719 59.113281 357.976562 58.953125 C 358.441406 58.796875 358.898438 58.609375 359.339844 58.402344 C 359.785156 58.191406 360.21875 57.957031 360.636719 57.699219 C 361.054688 57.441406 361.457031 57.164062 361.84375 56.863281 C 362.234375 56.558594 362.601562 56.238281 362.953125 55.894531 C 363.308594 55.550781 363.640625 55.191406 363.953125 54.808594 C 364.261719 54.429688 364.554688 54.035156 364.824219 53.625 C 365.089844 53.210938 365.335938 52.785156 365.558594 52.347656 C 365.777344 51.910156 365.976562 51.457031 366.148438 51 C 366.320312 50.539062 366.464844 50.070312 366.585938 49.59375 C 366.703125 49.117188 366.796875 48.632812 366.863281 48.144531 C 366.929688 47.660156 366.972656 47.171875 366.984375 46.679688 C 366.996094 46.1875 366.980469 45.695312 366.941406 45.207031 C 366.898438 44.714844 366.828125 44.230469 366.734375 43.75 C 366.640625 43.265625 366.519531 42.789062 366.371094 42.320312 C 366.222656 41.851562 366.046875 41.394531 365.851562 40.945312 C 365.652344 40.496094 365.429688 40.058594 365.179688 39.632812 C 364.933594 39.207031 364.664062 38.796875 364.371094 38.402344 C 364.082031 38.007812 363.765625 37.628906 363.433594 37.269531 C 363.097656 36.90625 362.746094 36.566406 362.375 36.246094 C 362.003906 35.921875 361.613281 35.625 361.210938 35.34375 C 360.804688 35.066406 360.386719 34.8125 359.953125 34.578125 C 359.519531 34.347656 359.074219 34.140625 358.617188 33.957031 C 358.164062 33.773438 357.699219 33.617188 357.222656 33.484375 C 356.75 33.351562 356.273438 33.25 355.785156 33.167969 C 355.300781 33.089844 354.8125 33.039062 354.324219 33.015625 C 353.832031 32.992188 353.34375 32.992188 352.851562 33.023438 C 352.359375 33.054688 351.875 33.109375 351.390625 33.191406 C 350.90625 33.277344 350.425781 33.386719 349.957031 33.523438 C 349.484375 33.660156 349.019531 33.820312 348.566406 34.011719 C 348.113281 34.199219 347.667969 34.410156 347.238281 34.648438 C 346.808594 34.882812 346.390625 35.144531 345.992188 35.425781 C 345.589844 35.707031 345.203125 36.011719 344.835938 36.339844 C 344.464844 36.664062 344.117188 37.007812 343.789062 37.371094 C 343.457031 37.738281 343.148438 38.117188 342.859375 38.515625 C 342.570312 38.914062 342.304688 39.328125 342.0625 39.753906 C 341.820312 40.183594 341.601562 40.621094 341.410156 41.074219 L 208.234375 41.074219 C 208.289062 40.628906 208.316406 40.183594 208.324219 39.738281 C 208.328125 39.289062 208.3125 38.84375 208.269531 38.398438 C 208.230469 37.953125 208.167969 37.511719 208.078125 37.074219 C 207.992188 36.636719 207.882812 36.203125 207.75 35.777344 C 207.617188 35.347656 207.464844 34.929688 207.289062 34.519531 C 207.113281 34.109375 206.917969 33.707031 206.699219 33.316406 C 206.480469 32.925781 206.242188 32.546875 205.984375 32.183594 C 205.730469 31.816406 205.453125 31.464844 205.160156 31.128906 C 204.867188 30.792969 204.554688 30.472656 204.226562 30.167969 C 203.898438 29.863281 203.558594 29.578125 203.199219 29.308594 C 202.84375 29.039062 202.472656 28.792969 202.089844 28.5625 C 201.707031 28.332031 201.3125 28.125 200.90625 27.933594 C 200.503906 27.746094 200.089844 27.578125 199.664062 27.433594 C 199.242188 27.289062 198.8125 27.167969 198.378906 27.066406 C 197.945312 26.964844 197.503906 26.890625 197.0625 26.835938 C 196.617188 26.78125 196.171875 26.75 195.726562 26.742188 L 179.585938 26.742188 C 178.695312 26.773438 177.820312 26.894531 176.953125 27.105469 C 176.085938 27.320312 175.253906 27.617188 174.449219 28 C 173.644531 28.382812 172.886719 28.84375 172.175781 29.382812 C 171.464844 29.921875 170.816406 30.527344 170.230469 31.195312 C 169.644531 31.867188 169.132812 32.59375 168.695312 33.371094 C 168.257812 34.144531 167.902344 34.960938 167.632812 35.808594 C 167.359375 36.65625 167.175781 37.527344 167.085938 38.414062 C 166.992188 39.300781 166.988281 40.1875 167.078125 41.074219 L 32.464844 41.074219 C 32.238281 40.636719 31.988281 40.214844 31.710938 39.808594 C 31.4375 39.402344 31.140625 39.007812 30.824219 38.632812 C 30.507812 38.257812 30.171875 37.902344 29.8125 37.566406 C 29.457031 37.226562 29.082031 36.910156 28.691406 36.613281 C 28.300781 36.316406 27.890625 36.042969 27.46875 35.792969 C 27.046875 35.542969 26.613281 35.3125 26.167969 35.109375 C 25.71875 34.90625 25.261719 34.730469 24.796875 34.578125 C 24.328125 34.425781 23.855469 34.296875 23.375 34.199219 C 22.894531 34.097656 22.40625 34.023438 21.917969 33.980469 C 21.429688 33.933594 20.941406 33.914062 20.449219 33.921875 C 19.957031 33.929688 19.46875 33.964844 18.980469 34.027344 C 18.496094 34.085938 18.011719 34.175781 17.535156 34.292969 C 17.058594 34.40625 16.585938 34.546875 16.125 34.714844 C 15.664062 34.882812 15.214844 35.074219 14.773438 35.292969 C 14.332031 35.511719 13.90625 35.75 13.492188 36.015625 C 13.078125 36.28125 12.679688 36.566406 12.296875 36.875 C 11.914062 37.183594 11.550781 37.511719 11.203125 37.863281 C 10.859375 38.210938 10.535156 38.578125 10.226562 38.964844 C 9.921875 39.347656 9.640625 39.75 9.378906 40.164062 C 9.117188 40.582031 8.878906 41.011719 8.667969 41.453125 C 8.453125 41.894531 8.265625 42.347656 8.101562 42.8125 C 7.9375 43.277344 7.800781 43.746094 7.691406 44.226562 C 7.578125 44.703125 7.496094 45.1875 7.4375 45.675781 C 7.378906 46.164062 7.347656 46.652344 7.34375 47.144531 C 7.339844 47.636719 7.363281 48.125 7.414062 48.613281 C 7.464844 49.105469 7.542969 49.589844 7.644531 50.070312 C 7.75 50.546875 7.878906 51.023438 8.035156 51.488281 C 8.195312 51.953125 8.375 52.410156 8.582031 52.855469 C 8.789062 53.300781 9.019531 53.734375 9.273438 54.152344 C 9.527344 54.574219 9.804688 54.980469 10.105469 55.367188 C 10.40625 55.757812 10.726562 56.128906 11.066406 56.484375 C 11.40625 56.839844 11.765625 57.171875 12.140625 57.488281 C 12.519531 57.800781 12.914062 58.09375 13.324219 58.363281 C 13.734375 58.636719 14.15625 58.882812 14.59375 59.105469 C 15.03125 59.332031 15.480469 59.527344 15.9375 59.703125 C 16.398438 59.878906 16.863281 60.027344 17.339844 60.148438 C 17.816406 60.269531 18.296875 60.367188 18.785156 60.4375 C 19.269531 60.503906 19.757812 60.546875 20.25 60.5625 C 20.738281 60.578125 21.230469 60.566406 21.71875 60.527344 C 22.210938 60.488281 22.695312 60.421875 23.179688 60.328125 C 23.660156 60.238281 24.136719 60.117188 24.605469 59.972656 C 25.074219 59.828125 25.535156 59.65625 25.984375 59.457031 C 26.433594 59.261719 26.871094 59.042969 27.296875 58.796875 C 27.722656 58.550781 28.132812 58.285156 28.53125 57.992188 C 28.925781 57.703125 29.304688 57.390625 29.667969 57.058594 C 30.03125 56.726562 30.371094 56.375 30.695312 56.007812 C 31.019531 55.636719 31.320312 55.25 31.597656 54.84375 C 31.878906 54.441406 32.136719 54.023438 32.371094 53.589844 L 122.601562 53.589844 C 118.742188 55.140625 114.945312 56.824219 111.207031 58.648438 C 107.46875 60.472656 103.800781 62.429688 100.207031 64.519531 C 96.609375 66.609375 93.09375 68.824219 89.660156 71.167969 C 86.222656 73.511719 82.878906 75.980469 79.621094 78.566406 C 76.363281 81.152344 73.203125 83.851562 70.140625 86.667969 C 67.082031 89.484375 64.125 92.40625 61.273438 95.4375 C 58.425781 98.46875 55.6875 101.597656 53.066406 104.824219 C 50.441406 108.050781 47.9375 111.371094 45.554688 114.78125 C 43.171875 118.191406 40.914062 121.679688 38.785156 125.253906 C 36.652344 128.828125 34.65625 132.472656 32.789062 136.191406 C 30.921875 139.910156 29.191406 143.691406 27.597656 147.53125 C 26.007812 151.375 24.554688 155.273438 23.242188 159.222656 C 21.933594 163.167969 20.765625 167.160156 19.742188 171.191406 C 18.722656 175.226562 17.847656 179.289062 17.117188 183.386719 C 16.390625 187.484375 15.8125 191.601562 15.382812 195.738281 C 14.953125 199.878906 14.671875 204.027344 14.542969 208.183594 C 14.542969 208.183594 0.839844 207.097656 0.09375 220.703125 L 0.09375 236.851562 C 0.09375 237.671875 0.175781 238.484375 0.335938 239.292969 C 0.496094 240.097656 0.734375 240.878906 1.050781 241.640625 C 1.363281 242.398438 1.75 243.117188 2.207031 243.800781 C 2.664062 244.484375 3.183594 245.117188 3.761719 245.699219 C 4.34375 246.277344 4.976562 246.796875 5.65625 247.253906 C 6.339844 247.710938 7.0625 248.097656 7.820312 248.410156 C 8.578125 248.726562 9.359375 248.964844 10.164062 249.125 C 10.96875 249.285156 11.78125 249.367188 12.605469 249.367188 L 28.742188 249.367188 C 29.5625 249.367188 30.375 249.285156 31.179688 249.121094 C 31.984375 248.960938 32.765625 248.722656 33.523438 248.40625 C 34.28125 248.089844 35.003906 247.703125 35.683594 247.246094 C 36.367188 246.789062 36.996094 246.273438 37.578125 245.691406 C 38.160156 245.109375 38.675781 244.480469 39.132812 243.796875 C 39.589844 243.113281 39.976562 242.394531 40.289062 241.636719 C 40.605469 240.878906 40.84375 240.09375 41.007812 239.289062 C 41.167969 238.484375 41.25 237.671875 41.253906 236.851562 L 41.253906 220.703125 C 41.207031 219.824219 41.074219 218.957031 40.851562 218.101562 C 40.632812 217.25 40.332031 216.425781 39.949219 215.632812 C 39.5625 214.835938 39.105469 214.089844 38.570312 213.386719 C 38.039062 212.6875 37.441406 212.042969 36.78125 211.460938 C 36.121094 210.878906 35.40625 210.367188 34.644531 209.925781 C 33.882812 209.484375 33.082031 209.125 32.246094 208.84375 C 31.410156 208.5625 30.558594 208.367188 29.683594 208.253906 C 28.808594 208.144531 27.933594 208.121094 27.054688 208.183594 C 27.132812 205.832031 27.265625 203.480469 27.449219 201.132812 C 27.632812 198.789062 27.867188 196.445312 28.15625 194.109375 C 28.445312 191.769531 28.78125 189.441406 29.171875 187.121094 C 29.5625 184.796875 30.003906 182.484375 30.496094 180.183594 C 30.988281 177.878906 31.53125 175.589844 32.125 173.3125 C 32.714844 171.03125 33.359375 168.769531 34.050781 166.519531 C 34.746094 164.269531 35.488281 162.035156 36.28125 159.816406 C 37.070312 157.601562 37.910156 155.402344 38.800781 153.222656 C 39.6875 151.042969 40.625 148.882812 41.609375 146.742188 C 42.59375 144.605469 43.625 142.488281 44.703125 140.394531 C 45.777344 138.300781 46.902344 136.234375 48.070312 134.191406 C 49.238281 132.144531 50.453125 130.128906 51.710938 128.140625 C 52.96875 126.148438 54.269531 124.1875 55.613281 122.253906 C 56.957031 120.324219 58.34375 118.421875 59.773438 116.550781 C 61.199219 114.679688 62.667969 112.839844 64.179688 111.035156 C 65.6875 109.226562 67.238281 107.457031 68.824219 105.71875 C 70.414062 103.980469 72.039062 102.277344 73.699219 100.609375 C 75.363281 98.945312 77.0625 97.316406 78.796875 95.726562 C 80.53125 94.132812 82.300781 92.582031 84.101562 91.070312 C 85.90625 89.558594 87.742188 88.085938 89.609375 86.652344 C 91.476562 85.222656 93.375 83.832031 95.304688 82.484375 C 97.234375 81.136719 99.195312 79.832031 101.179688 78.570312 C 103.167969 77.308594 105.179688 76.089844 107.222656 74.917969 C 109.261719 73.746094 111.328125 72.621094 113.417969 71.539062 C 115.507812 70.457031 117.621094 69.421875 119.757812 68.433594 C 121.894531 67.449219 124.050781 66.507812 126.230469 65.613281 C 128.40625 64.722656 130.601562 63.878906 132.816406 63.082031 C 135.03125 62.289062 137.265625 61.542969 139.511719 60.84375 C 141.757812 60.148438 144.023438 59.5 146.296875 58.90625 C 148.574219 58.308594 150.863281 57.761719 153.164062 57.265625 C 155.464844 56.769531 157.773438 56.324219 160.09375 55.933594 C 162.414062 55.539062 164.742188 55.195312 167.078125 54.90625 C 167.058594 55.746094 167.121094 56.578125 167.265625 57.40625 C 167.410156 58.230469 167.636719 59.035156 167.941406 59.816406 C 168.242188 60.601562 168.621094 61.34375 169.074219 62.050781 C 169.523438 62.757812 170.042969 63.414062 170.625 64.019531 C 171.203125 64.625 171.839844 65.167969 172.527344 65.648438 C 173.21875 66.125 173.945312 66.535156 174.714844 66.867188 C 175.484375 67.203125 176.277344 67.460938 177.097656 67.636719 C 177.917969 67.816406 178.75 67.910156 179.585938 67.925781 L 195.726562 67.925781 C 196.566406 67.925781 197.402344 67.847656 198.226562 67.679688 C 199.054688 67.515625 199.855469 67.265625 200.628906 66.9375 C 201.40625 66.609375 202.140625 66.207031 202.835938 65.730469 C 203.53125 65.253906 204.167969 64.710938 204.753906 64.105469 C 205.339844 63.5 205.855469 62.839844 206.308594 62.128906 C 206.757812 61.414062 207.132812 60.664062 207.433594 59.878906 C 207.730469 59.089844 207.949219 58.28125 208.085938 57.449219 C 208.21875 56.617188 208.269531 55.78125 208.234375 54.9375 C 210.570312 55.226562 212.898438 55.566406 215.21875 55.957031 C 217.539062 56.351562 219.851562 56.792969 222.152344 57.285156 C 224.453125 57.78125 226.742188 58.324219 229.019531 58.921875 C 231.296875 59.515625 233.558594 60.160156 235.808594 60.855469 C 238.054688 61.550781 240.289062 62.296875 242.503906 63.089844 C 244.71875 63.882812 246.914062 64.726562 249.09375 65.617188 C 251.273438 66.507812 253.429688 67.449219 255.566406 68.433594 C 257.703125 69.421875 259.816406 70.453125 261.910156 71.535156 C 264 72.613281 266.066406 73.742188 268.105469 74.914062 C 270.148438 76.085938 272.164062 77.300781 274.152344 78.5625 C 276.136719 79.820312 278.097656 81.125 280.027344 82.472656 C 281.957031 83.820312 283.855469 85.210938 285.726562 86.640625 C 287.59375 88.070312 289.429688 89.542969 291.234375 91.054688 C 293.039062 92.570312 294.804688 94.121094 296.542969 95.710938 C 298.277344 97.300781 299.976562 98.929688 301.640625 100.597656 C 303.300781 102.261719 304.925781 103.964844 306.515625 105.703125 C 308.101562 107.441406 309.652344 109.210938 311.160156 111.019531 C 312.671875 112.824219 314.140625 114.664062 315.570312 116.535156 C 316.996094 118.40625 318.382812 120.308594 319.726562 122.242188 C 321.070312 124.175781 322.371094 126.136719 323.628906 128.125 C 324.886719 130.117188 326.101562 132.132812 327.269531 134.175781 C 328.4375 136.222656 329.5625 138.289062 330.636719 140.382812 C 331.714844 142.476562 332.746094 144.59375 333.730469 146.734375 C 334.714844 148.871094 335.648438 151.03125 336.539062 153.210938 C 337.425781 155.394531 338.265625 157.59375 339.054688 159.808594 C 339.847656 162.027344 340.589844 164.261719 341.28125 166.511719 C 341.972656 168.761719 342.617188 171.027344 343.207031 173.304688 C 343.800781 175.585938 344.34375 177.875 344.832031 180.179688 C 345.324219 182.480469 345.765625 184.792969 346.152344 187.117188 C 346.542969 189.4375 346.878906 191.769531 347.164062 194.105469 C 347.449219 196.445312 347.683594 198.785156 347.867188 201.132812 C 348.050781 203.480469 348.179688 205.832031 348.257812 208.183594 C 348.257812 208.183594 335.101562 207.265625 334.058594 220.703125 L 334.058594 236.851562 C 334.0625 237.671875 334.144531 238.484375 334.304688 239.289062 C 334.46875 240.09375 334.707031 240.878906 335.023438 241.636719 C 335.335938 242.394531 335.722656 243.113281 336.179688 243.796875 C 336.636719 244.480469 337.15625 245.109375 337.734375 245.691406 C 338.316406 246.273438 338.945312 246.789062 339.628906 247.246094 C 340.308594 247.703125 341.03125 248.089844 341.789062 248.40625 C 342.546875 248.722656 343.328125 248.960938 344.132812 249.121094 C 344.9375 249.285156 345.75 249.367188 346.570312 249.367188 L 362.707031 249.367188 C 363.53125 249.367188 364.34375 249.285156 365.148438 249.125 C 365.953125 248.964844 366.734375 248.726562 367.492188 248.410156 C 368.253906 248.097656 368.972656 247.710938 369.65625 247.253906 C 370.335938 246.796875 370.96875 246.277344 371.550781 245.699219 C 372.128906 245.117188 372.648438 244.484375 373.105469 243.800781 C 373.5625 243.117188 373.949219 242.398438 374.261719 241.640625 C 374.578125 240.878906 374.816406 240.097656 374.976562 239.292969 C 375.136719 238.484375 375.21875 237.671875 375.21875 236.851562 L 375.21875 220.703125 C 374.222656 207.097656 360.769531 208.183594 360.769531 208.183594 Z M 28.742188 223.832031 L 28.742188 233.722656 C 28.742188 234.136719 28.664062 234.535156 28.503906 234.917969 C 28.347656 235.300781 28.121094 235.640625 27.828125 235.933594 C 27.535156 236.226562 27.195312 236.453125 26.8125 236.613281 C 26.429688 236.773438 26.03125 236.851562 25.613281 236.851562 L 15.730469 236.851562 C 15.316406 236.851562 14.917969 236.773438 14.535156 236.613281 C 14.152344 236.453125 13.8125 236.226562 13.519531 235.933594 C 13.226562 235.640625 13 235.300781 12.84375 234.917969 C 12.683594 234.535156 12.605469 234.136719 12.605469 233.722656 L 12.605469 223.832031 C 12.605469 223.417969 12.683594 223.019531 12.84375 222.636719 C 13 222.25 13.226562 221.914062 13.519531 221.621094 C 13.8125 221.328125 14.152344 221.101562 14.535156 220.941406 C 14.917969 220.78125 15.316406 220.703125 15.730469 220.703125 L 25.613281 220.703125 C 26.03125 220.703125 26.429688 220.78125 26.8125 220.941406 C 27.195312 221.101562 27.535156 221.328125 27.828125 221.621094 C 28.121094 221.914062 28.347656 222.25 28.503906 222.636719 C 28.664062 223.019531 28.742188 223.417969 28.742188 223.832031 Z M 192.597656 55.40625 L 182.714844 55.40625 C 182.300781 55.40625 181.902344 55.328125 181.519531 55.167969 C 181.132812 55.007812 180.796875 54.785156 180.503906 54.488281 C 180.210938 54.195312 179.984375 53.859375 179.824219 53.476562 C 179.667969 53.089844 179.585938 52.691406 179.585938 52.277344 L 179.585938 42.386719 C 179.585938 41.972656 179.667969 41.574219 179.824219 41.191406 C 179.984375 40.808594 180.210938 40.46875 180.503906 40.175781 C 180.796875 39.882812 181.132812 39.65625 181.519531 39.496094 C 181.902344 39.339844 182.300781 39.257812 182.714844 39.257812 L 192.597656 39.257812 C 193.011719 39.257812 193.410156 39.339844 193.792969 39.496094 C 194.179688 39.65625 194.515625 39.882812 194.808594 40.175781 C 195.101562 40.46875 195.328125 40.808594 195.488281 41.191406 C 195.644531 41.574219 195.726562 41.972656 195.726562 42.386719 L 195.726562 52.277344 C 195.726562 52.691406 195.644531 53.089844 195.488281 53.476562 C 195.328125 53.859375 195.101562 54.195312 194.808594 54.488281 C 194.515625 54.785156 194.179688 55.007812 193.792969 55.167969 C 193.410156 55.328125 193.011719 55.40625 192.597656 55.40625 Z M 346.570312 233.722656 L 346.570312 223.832031 C 346.570312 223.417969 346.648438 223.019531 346.808594 222.636719 C 346.96875 222.25 347.191406 221.914062 347.484375 221.621094 C 347.78125 221.328125 348.117188 221.101562 348.5 220.941406 C 348.882812 220.78125 349.28125 220.703125 349.699219 220.703125 L 359.585938 220.703125 C 360 220.703125 360.402344 220.78125 360.785156 220.941406 C 361.167969 221.101562 361.503906 221.328125 361.796875 221.621094 C 362.09375 221.914062 362.316406 222.25 362.476562 222.636719 C 362.636719 223.019531 362.714844 223.417969 362.714844 223.832031 L 362.734375 233.722656 C 362.734375 234.136719 362.652344 234.535156 362.496094 234.917969 C 362.335938 235.300781 362.109375 235.640625 361.816406 235.933594 C 361.523438 236.226562 361.1875 236.453125 360.800781 236.613281 C 360.417969 236.773438 360.019531 236.851562 359.605469 236.851562 L 349.699219 236.851562 C 349.28125 236.851562 348.882812 236.773438 348.5 236.613281 C 348.117188 236.453125 347.78125 236.226562 347.484375 235.933594 C 347.191406 235.640625 346.96875 235.300781 346.808594 234.917969 C 346.648438 234.535156 346.570312 234.136719 346.570312 233.722656 Z M 346.570312 233.722656"/></g></svg>