<svg xmlns="http://www.w3.org/2000/svg" width="375" viewBox="0 0 375 375" height="375" version="1.0"><defs><clipPath id="a"><path d="M 25 29 L 350 29 L 350 101.550781 L 25 101.550781 Z M 25 29"/></clipPath></defs><path fill="#FFD600" d="M-37.5 -37.5H412.5V412.5H-37.5z"/><path fill="#000001" d="M 245.1875 280.699219 C 252.394531 292.40625 260.230469 303.625 276.824219 303.625 C 290.761719 303.625 298.074219 296.699219 298.074219 287.113281 C 298.074219 275.644531 290.511719 271.574219 275.175781 264.894531 L 266.769531 261.3125 C 242.511719 251.019531 226.375 238.125 226.375 210.886719 C 226.375 185.78125 245.59375 166.675781 275.625 166.675781 C 297.011719 166.675781 312.375 174.082031 323.457031 193.480469 L 297.269531 210.21875 C 291.511719 199.925781 285.28125 195.875 275.625 195.875 C 265.769531 195.875 259.53125 202.09375 259.53125 210.21875 C 259.53125 220.261719 265.78125 224.324219 280.207031 230.542969 L 288.613281 234.125 C 317.207031 246.300781 333.332031 258.738281 333.332031 286.699219 C 333.332031 316.824219 309.542969 333.332031 277.605469 333.332031 C 246.363281 333.332031 228.625 317.65625 218.75 298.25 Z M 124.5 281.550781 C 129.769531 290.988281 137.78125 298.25 149.300781 298.25 C 160.324219 298.25 166.667969 293.894531 166.667969 276.96875 L 166.667969 166.667969 L 201.386719 166.667969 L 201.386719 282.300781 C 201.386719 317.375 181.042969 333.332031 151.332031 333.332031 C 124.488281 333.332031 105.113281 315.144531 97.21875 298.25 Z M 124.5 281.550781"/><g clip-path="url(#a)"><path d="M 125.980469 101.714844 L 125.980469 31.070312 L 129.828125 31.070312 L 129.828125 42.183594 C 130.285156 41.6875 130.703125 41.167969 131.085938 40.617188 C 134.304688 33.976562 141.085938 29.785156 148.492188 29.867188 C 157.273438 29.609375 164.410156 32.839844 168.601562 40.617188 C 169.265625 41.820312 169.855469 43.058594 170.375 44.332031 C 170.890625 45.601562 171.328125 46.902344 171.6875 48.226562 C 172.050781 49.554688 172.328125 50.894531 172.53125 52.253906 C 172.730469 53.613281 172.847656 54.976562 172.882812 56.347656 C 172.921875 57.722656 172.875 59.089844 172.746094 60.457031 C 172.621094 61.824219 172.410156 63.179688 172.121094 64.523438 C 171.832031 65.863281 171.460938 67.183594 171.011719 68.484375 C 170.5625 69.78125 170.039062 71.050781 169.441406 72.285156 C 165.535156 80.996094 155.882812 85.328125 145.554688 83.738281 C 143.945312 83.601562 142.382812 83.269531 140.855469 82.746094 C 139.332031 82.21875 137.898438 81.511719 136.550781 80.628906 C 135.203125 79.746094 133.988281 78.710938 132.902344 77.523438 C 131.816406 76.335938 130.894531 75.03125 130.136719 73.617188 L 130.136719 101.710938 Z M 129.828125 56.058594 L 130.691406 64.355469 C 132.214844 73.796875 137.824219 79.375 146.632812 80.425781 C 147.660156 80.59375 148.691406 80.671875 149.734375 80.664062 C 150.773438 80.652344 151.804688 80.554688 152.828125 80.371094 C 153.851562 80.183594 154.851562 79.910156 155.828125 79.554688 C 156.804688 79.195312 157.742188 78.757812 158.640625 78.242188 C 159.542969 77.722656 160.390625 77.132812 161.191406 76.46875 C 161.988281 75.804688 162.722656 75.078125 163.394531 74.289062 C 164.066406 73.496094 164.667969 72.65625 165.195312 71.765625 C 165.71875 70.871094 166.167969 69.941406 166.53125 68.972656 C 169.957031 60.847656 169.703125 51.652344 165.855469 43.71875 C 165.464844 42.847656 165.003906 42.015625 164.480469 41.21875 C 163.953125 40.425781 163.367188 39.675781 162.71875 38.976562 C 162.070312 38.273438 161.371094 37.628906 160.621094 37.039062 C 159.867188 36.453125 159.074219 35.925781 158.234375 35.46875 C 157.398438 35.007812 156.527344 34.617188 155.625 34.296875 C 154.726562 33.972656 153.804688 33.726562 152.863281 33.554688 C 151.921875 33.382812 150.972656 33.289062 150.015625 33.269531 C 149.058594 33.25 148.105469 33.304688 147.160156 33.441406 C 146.269531 33.503906 145.390625 33.636719 144.519531 33.835938 C 143.652344 34.035156 142.800781 34.300781 141.972656 34.632812 C 141.148438 34.964844 140.347656 35.355469 139.582031 35.808594 C 138.816406 36.261719 138.085938 36.773438 137.398438 37.335938 C 136.710938 37.902344 136.074219 38.519531 135.480469 39.183594 C 134.890625 39.847656 134.351562 40.554688 133.871094 41.300781 C 133.386719 42.046875 132.964844 42.828125 132.605469 43.636719 C 132.246094 44.449219 131.949219 45.285156 131.71875 46.144531 C 130.898438 49.410156 130.269531 52.714844 129.828125 56.054688 Z M 251.515625 65.660156 C 251.371094 66.894531 251.117188 68.105469 250.753906 69.292969 C 250.390625 70.480469 249.921875 71.625 249.347656 72.730469 C 248.777344 73.832031 248.109375 74.878906 247.351562 75.863281 C 246.589844 76.847656 245.746094 77.753906 244.820312 78.585938 C 243.894531 79.421875 242.902344 80.164062 241.839844 80.820312 C 240.78125 81.472656 239.667969 82.027344 238.507812 82.484375 C 237.347656 82.941406 236.15625 83.289062 234.929688 83.53125 C 233.707031 83.769531 232.472656 83.902344 231.222656 83.921875 C 215.074219 84.730469 207.496094 74.058594 206.289062 61.746094 C 205.871094 58.402344 205.929688 55.066406 206.464844 51.738281 C 207 48.414062 207.988281 45.226562 209.433594 42.179688 C 209.933594 41.140625 210.515625 40.148438 211.171875 39.199219 C 211.832031 38.253906 212.558594 37.363281 213.359375 36.53125 C 214.160156 35.699219 215.019531 34.933594 215.941406 34.238281 C 216.863281 33.539062 217.832031 32.917969 218.851562 32.375 C 219.871094 31.832031 220.929688 31.371094 222.023438 30.992188 C 223.113281 30.613281 224.230469 30.324219 225.371094 30.121094 C 226.511719 29.921875 227.660156 29.808594 228.816406 29.789062 C 229.972656 29.765625 231.125 29.835938 232.269531 29.996094 C 233.359375 30.089844 234.4375 30.265625 235.496094 30.523438 C 236.558594 30.785156 237.59375 31.125 238.605469 31.542969 C 239.613281 31.964844 240.582031 32.460938 241.511719 33.03125 C 242.445312 33.605469 243.324219 34.246094 244.152344 34.953125 C 244.984375 35.660156 245.753906 36.429688 246.460938 37.257812 C 247.171875 38.085938 247.8125 38.964844 248.382812 39.890625 C 248.953125 40.820312 249.449219 41.785156 249.871094 42.792969 C 250.289062 43.796875 250.628906 44.828125 250.886719 45.886719 C 251.707031 49.765625 252.308594 53.679688 252.691406 57.625 L 210.28125 57.625 C 209.492188 68.789062 215.523438 77.765625 224.070312 79.929688 C 234.714844 82.535156 243.8125 77.945312 247.113281 67.878906 C 247.847656 65.292969 249.183594 64.929688 251.542969 65.660156 Z M 210.25 54.050781 L 248.1875 54.050781 C 247.949219 42.15625 240.503906 33.511719 230.410156 33.414062 C 219.011719 33.230469 210.746094 41.527344 210.25 54.050781 Z M 259.355469 65.921875 L 263.074219 65.921875 C 263.144531 67.285156 263.394531 68.613281 263.832031 69.90625 C 264.269531 71.199219 264.875 72.410156 265.648438 73.539062 C 266.417969 74.664062 267.332031 75.667969 268.378906 76.546875 C 269.429688 77.421875 270.582031 78.144531 271.832031 78.703125 C 273.402344 79.40625 275.027344 79.925781 276.714844 80.265625 C 278.402344 80.601562 280.109375 80.746094 281.828125 80.703125 C 283.550781 80.65625 285.242188 80.421875 286.910156 79.996094 C 288.578125 79.570312 290.175781 78.96875 291.707031 78.183594 C 292.539062 77.808594 293.296875 77.320312 293.980469 76.714844 C 294.664062 76.109375 295.238281 75.414062 295.710938 74.632812 C 296.179688 73.851562 296.519531 73.019531 296.730469 72.132812 C 296.941406 71.246094 297.015625 70.351562 296.949219 69.445312 C 296.996094 68.566406 296.90625 67.707031 296.671875 66.863281 C 296.4375 66.015625 296.074219 65.230469 295.582031 64.503906 C 295.089844 63.777344 294.492188 63.144531 293.792969 62.609375 C 293.09375 62.078125 292.328125 61.667969 291.496094 61.382812 C 287.40625 59.867188 283.054688 59.03125 278.886719 57.703125 C 274.542969 56.472656 270.3125 54.933594 266.195312 53.085938 C 259.480469 49.824219 259.0625 37.121094 266.667969 33.097656 C 268.613281 32.007812 270.667969 31.167969 272.824219 30.585938 C 274.980469 30.003906 277.175781 29.699219 279.414062 29.664062 C 281.648438 29.628906 283.851562 29.871094 286.027344 30.386719 C 288.199219 30.898438 290.277344 31.675781 292.257812 32.707031 C 297.167969 35.40625 299.882812 40.851562 299.074219 46.378906 L 295.886719 46.378906 C 295.886719 46.226562 295.597656 46.089844 295.597656 45.933594 C 295.203125 35.816406 286.65625 32.65625 277.480469 33.542969 C 274.707031 33.851562 272.082031 34.683594 269.617188 35.917969 C 268.875 36.253906 268.203125 36.695312 267.601562 37.238281 C 266.996094 37.78125 266.492188 38.40625 266.082031 39.105469 C 265.675781 39.808594 265.382812 40.554688 265.207031 41.34375 C 265.03125 42.136719 264.980469 42.9375 265.054688 43.742188 C 265.058594 44.550781 265.183594 45.339844 265.429688 46.109375 C 265.675781 46.875 266.035156 47.589844 266.503906 48.25 C 266.972656 48.910156 267.53125 49.480469 268.179688 49.96875 C 268.828125 50.453125 269.535156 50.832031 270.300781 51.101562 C 274.304688 52.5625 278.558594 53.5 282.699219 54.644531 L 292.714844 57.253906 C 293.851562 57.625 294.90625 58.15625 295.882812 58.847656 C 296.859375 59.535156 297.710938 60.355469 298.4375 61.304688 C 299.160156 62.253906 299.730469 63.285156 300.140625 64.40625 C 300.550781 65.527344 300.78125 66.679688 300.839844 67.871094 C 301.640625 73.21875 298.898438 78.476562 294.050781 80.914062 C 285.292969 85.84375 270.875 84.539062 264.449219 78.308594 C 261.164062 75.019531 259.328125 70.554688 259.367188 65.917969 Z M 348.023438 46.382812 L 344.535156 46.382812 C 344.535156 45.914062 344.351562 45.460938 344.296875 45.105469 C 344.285156 44.457031 344.214844 43.820312 344.09375 43.183594 C 343.96875 42.550781 343.792969 41.933594 343.5625 41.328125 C 343.332031 40.722656 343.054688 40.144531 342.722656 39.585938 C 342.394531 39.03125 342.019531 38.507812 341.601562 38.015625 C 341.179688 37.523438 340.722656 37.066406 340.226562 36.652344 C 339.726562 36.238281 339.199219 35.867188 338.636719 35.542969 C 338.078125 35.21875 337.492188 34.941406 336.882812 34.71875 C 336.277344 34.492188 335.652344 34.320312 335.015625 34.199219 C 332.59375 33.507812 330.121094 33.222656 327.605469 33.34375 C 325.085938 33.464844 322.652344 33.984375 320.308594 34.90625 C 319.378906 35.167969 318.519531 35.570312 317.722656 36.113281 C 316.925781 36.65625 316.238281 37.308594 315.652344 38.074219 C 315.070312 38.835938 314.621094 39.671875 314.308594 40.582031 C 314 41.488281 313.839844 42.425781 313.832031 43.382812 C 313.816406 43.851562 313.839844 44.316406 313.902344 44.78125 C 313.96875 45.246094 314.070312 45.699219 314.210938 46.144531 C 314.355469 46.59375 314.535156 47.023438 314.75 47.4375 C 314.96875 47.855469 315.21875 48.246094 315.503906 48.621094 C 315.785156 48.992188 316.101562 49.339844 316.445312 49.660156 C 316.789062 49.976562 317.15625 50.265625 317.550781 50.519531 C 317.945312 50.777344 318.359375 51 318.789062 51.183594 C 319.222656 51.371094 319.667969 51.515625 320.125 51.628906 L 336.0625 55.699219 C 337.789062 56.109375 339.484375 56.621094 341.148438 57.238281 C 346.230469 59.074219 349.679688 63.773438 349.835938 69.140625 C 349.855469 69.792969 349.824219 70.445312 349.746094 71.09375 C 349.664062 71.742188 349.535156 72.378906 349.359375 73.007812 C 349.183594 73.640625 348.960938 74.253906 348.695312 74.847656 C 348.425781 75.445312 348.113281 76.015625 347.757812 76.566406 C 347.402344 77.117188 347.007812 77.636719 346.574219 78.125 C 346.140625 78.617188 345.671875 79.070312 345.167969 79.492188 C 344.664062 79.914062 344.132812 80.292969 343.574219 80.632812 C 343.011719 80.972656 342.429688 81.269531 341.824219 81.523438 C 339.976562 82.359375 338.058594 82.996094 336.074219 83.433594 C 334.089844 83.871094 332.082031 84.101562 330.050781 84.121094 C 328.019531 84.140625 326.007812 83.953125 324.015625 83.554688 C 322.023438 83.15625 320.09375 82.558594 318.230469 81.761719 C 317.464844 81.433594 316.730469 81.050781 316.027344 80.613281 C 315.324219 80.171875 314.65625 79.683594 314.027344 79.144531 C 313.398438 78.605469 312.8125 78.019531 312.273438 77.390625 C 311.734375 76.765625 311.242188 76.097656 310.804688 75.394531 C 310.367188 74.691406 309.984375 73.960938 309.660156 73.203125 C 309.332031 72.441406 309.066406 71.660156 308.859375 70.859375 C 308.652344 70.058594 308.507812 69.246094 308.425781 68.425781 C 308.34375 67.601562 308.324219 66.777344 308.371094 65.953125 L 311.777344 65.953125 C 313.058594 72.097656 317.300781 77.21875 323.121094 79.640625 C 328.941406 82.0625 335.585938 81.464844 340.878906 78.058594 C 341.671875 77.648438 342.394531 77.132812 343.039062 76.515625 C 343.683594 75.902344 344.230469 75.207031 344.675781 74.433594 C 345.125 73.664062 345.453125 72.84375 345.660156 71.976562 C 345.871094 71.113281 345.957031 70.234375 345.914062 69.34375 C 345.953125 68.46875 345.851562 67.609375 345.609375 66.765625 C 345.367188 65.921875 344.996094 65.140625 344.496094 64.417969 C 343.996094 63.695312 343.394531 63.070312 342.691406 62.542969 C 341.988281 62.015625 341.214844 61.613281 340.378906 61.335938 C 336.289062 59.820312 331.9375 59.015625 327.769531 57.65625 C 323.402344 56.445312 319.148438 54.921875 315.003906 53.09375 C 308.445312 49.882812 307.921875 37.285156 315.398438 33.265625 C 316.378906 32.699219 317.390625 32.195312 318.4375 31.757812 C 319.484375 31.320312 320.554688 30.953125 321.648438 30.652344 C 322.742188 30.355469 323.851562 30.125 324.976562 29.96875 C 326.101562 29.808594 327.230469 29.726562 328.363281 29.714844 C 329.5 29.699219 330.628906 29.761719 331.757812 29.894531 C 332.882812 30.023438 333.996094 30.230469 335.097656 30.503906 C 336.199219 30.78125 337.277344 31.125 338.332031 31.539062 C 339.386719 31.953125 340.410156 32.429688 341.40625 32.976562 C 342.546875 33.65625 343.566406 34.480469 344.46875 35.453125 C 345.367188 36.425781 346.109375 37.507812 346.695312 38.695312 C 347.277344 39.882812 347.679688 41.128906 347.902344 42.433594 C 348.121094 43.738281 348.148438 45.046875 347.988281 46.359375 Z M 119.640625 82.648438 C 119.300781 82.773438 118.953125 82.871094 118.59375 82.9375 C 118.234375 83 117.875 83.035156 117.511719 83.03125 C 117.148438 83.03125 116.785156 83 116.429688 82.933594 C 116.070312 82.867188 115.722656 82.769531 115.382812 82.644531 C 115.042969 82.515625 114.714844 82.355469 114.40625 82.167969 C 114.09375 81.980469 113.800781 81.765625 113.527344 81.527344 C 113.257812 81.285156 113.007812 81.023438 112.785156 80.738281 C 112.558594 80.453125 112.363281 80.148438 112.195312 79.828125 L 98.640625 61.175781 L 96.675781 58.570312 L 80.941406 79.855469 C 80.621094 80.476562 80.203125 81.019531 79.683594 81.484375 C 79.164062 81.953125 78.578125 82.3125 77.925781 82.566406 C 77.277344 82.820312 76.601562 82.953125 75.898438 82.964844 C 75.199219 82.972656 74.523438 82.859375 73.863281 82.621094 L 94.128906 55.570312 L 75.273438 31.125 C 78.070312 30.121094 81.191406 31.210938 82.746094 33.730469 L 96.792969 52.613281 L 110.925781 33.804688 C 111.085938 33.503906 111.273438 33.21875 111.484375 32.949219 C 111.695312 32.683594 111.933594 32.4375 112.1875 32.210938 C 112.445312 31.984375 112.722656 31.785156 113.015625 31.609375 C 113.3125 31.433594 113.617188 31.289062 113.941406 31.167969 C 114.261719 31.050781 114.589844 30.960938 114.929688 30.902344 C 115.265625 30.839844 115.605469 30.8125 115.949219 30.816406 C 116.292969 30.816406 116.632812 30.851562 116.96875 30.914062 C 117.304688 30.976562 117.632812 31.070312 117.953125 31.195312 L 110.644531 40.855469 L 100.734375 53.691406 C 100.457031 53.9375 100.242188 54.230469 100.089844 54.570312 C 99.9375 54.90625 99.859375 55.261719 99.859375 55.632812 C 99.859375 56.003906 99.9375 56.359375 100.089844 56.699219 C 100.242188 57.035156 100.457031 57.328125 100.734375 57.578125 L 119.609375 82.648438 Z M 205.6875 30.863281 L 205.6875 34.542969 C 205.027344 34.5 204.367188 34.492188 203.703125 34.515625 C 203.042969 34.542969 202.382812 34.601562 201.726562 34.695312 C 201.070312 34.789062 200.421875 34.917969 199.78125 35.082031 C 199.136719 35.242188 198.507812 35.4375 197.882812 35.664062 C 197.261719 35.890625 196.65625 36.152344 196.058594 36.441406 C 195.464844 36.734375 194.886719 37.054688 194.328125 37.40625 C 193.765625 37.753906 193.226562 38.136719 192.703125 38.542969 C 192.183594 38.949219 191.683594 39.382812 191.207031 39.839844 C 190.734375 40.300781 190.28125 40.78125 189.859375 41.289062 C 189.433594 41.792969 189.035156 42.320312 188.667969 42.867188 C 188.296875 43.414062 187.957031 43.980469 187.648438 44.5625 C 187.335938 45.144531 187.058594 45.742188 186.8125 46.355469 C 186.5625 46.964844 186.347656 47.589844 186.167969 48.222656 C 185.984375 48.855469 185.835938 49.496094 185.722656 50.148438 C 185.609375 50.796875 185.527344 51.449219 185.480469 52.109375 C 185.4375 52.765625 185.425781 53.421875 185.449219 54.082031 C 185.449219 62.675781 185.449219 71.265625 185.449219 79.855469 L 185.449219 82.777344 L 181.699219 82.777344 L 181.699219 31.09375 L 185.394531 31.09375 L 185.394531 41.6875 C 189.929688 33.960938 196.929688 31.09375 205.714844 30.886719 Z M 25.347656 55.230469 L 26.996094 47.117188 C 31.53125 31.074219 50.019531 24.394531 62.734375 34.335938 C 70.183594 40.152344 72.039062 48.394531 71.675781 57.683594 L 29.722656 57.683594 C 29.046875 74.273438 41.078125 84.292969 56.464844 79.179688 C 61.535156 77.339844 65.355469 73.148438 66.609375 67.933594 C 67.425781 65.328125 68.769531 64.882812 71.226562 65.636719 C 71.019531 67.222656 70.640625 68.769531 70.082031 70.273438 C 69.527344 71.773438 68.808594 73.195312 67.925781 74.535156 C 67.042969 75.875 66.023438 77.097656 64.863281 78.207031 C 63.703125 79.320312 62.433594 80.285156 61.054688 81.109375 C 59.921875 81.722656 58.746094 82.25 57.527344 82.683594 C 56.3125 83.113281 55.070312 83.449219 53.800781 83.6875 C 52.53125 83.925781 51.253906 84.066406 49.960938 84.105469 C 48.671875 84.140625 47.382812 84.082031 46.101562 83.917969 C 44.820312 83.753906 43.5625 83.492188 42.320312 83.132812 C 41.082031 82.773438 39.878906 82.316406 38.710938 81.769531 C 37.542969 81.222656 36.421875 80.585938 35.355469 79.863281 C 34.289062 79.140625 33.285156 78.335938 32.34375 77.457031 C 28.597656 73.265625 26.335938 67.96875 25.894531 62.375 C 25.894531 61.453125 25.585938 60.597656 25.371094 59.769531 C 25.351562 58.222656 25.339844 56.710938 25.339844 55.230469 Z M 29.777344 54.109375 L 67.714844 54.109375 C 67.476562 42.085938 59.847656 33.554688 49.675781 33.472656 C 38.351562 33.320312 30.246094 41.664062 29.75 54.058594 Z M 29.777344 54.109375"/></g></svg>