<svg xmlns="http://www.w3.org/2000/svg" width="375" viewBox="0 0 375 375" height="375" version="1.0"><defs><clipPath id="a"><path d="M 93.917969 234 L 188 234 L 188 327.722656 L 93.917969 327.722656 Z M 93.917969 234"/></clipPath><clipPath id="b"><path d="M 93.917969 140 L 188 140 L 188 235 L 93.917969 235 Z M 93.917969 140"/></clipPath><clipPath id="c"><path d="M 93.917969 47.039062 L 188 47.039062 L 188 141 L 93.917969 141 Z M 93.917969 47.039062"/></clipPath><clipPath id="d"><path d="M 187 47.039062 L 281.417969 47.039062 L 281.417969 141 L 187 141 Z M 187 47.039062"/></clipPath><clipPath id="e"><path d="M 187 140 L 281.417969 140 L 281.417969 235 L 187 235 Z M 187 140"/></clipPath></defs><path fill="#348C96" d="M 350.613281 375 L 24.386719 375 C 10.949219 375 0 364.050781 0 350.613281 L 0 24.386719 C 0 10.949219 10.949219 0 24.386719 0 L 350.613281 0 C 364.050781 0 375 10.949219 375 24.386719 L 375 350.613281 C 375 364.050781 364.050781 375 350.613281 375"/><path fill="#234142" d="M 336.5 358.746094 L 38.941406 358.746094 C 26.6875 358.746094 16.699219 348.757812 16.699219 336.5 L 16.699219 38.941406 C 16.699219 26.6875 26.6875 16.699219 38.941406 16.699219 L 336.5 16.699219 C 348.757812 16.699219 358.746094 26.6875 358.746094 38.941406 L 358.746094 336.5 C 358.746094 348.757812 348.757812 358.746094 336.5 358.746094"/><g clip-path="url(#a)"><path fill="#0ACF83" d="M 140.792969 327.636719 C 166.667969 327.636719 187.667969 306.691406 187.667969 280.886719 L 187.667969 234.132812 L 140.792969 234.132812 C 114.917969 234.132812 93.917969 255.078125 93.917969 280.886719 C 93.917969 306.691406 114.917969 327.636719 140.792969 327.636719 Z M 140.792969 327.636719"/></g><g clip-path="url(#b)"><path fill="#A259FF" d="M 93.917969 187.378906 C 93.917969 161.574219 114.917969 140.628906 140.792969 140.628906 L 187.667969 140.628906 L 187.667969 234.132812 L 140.792969 234.132812 C 114.917969 234.132812 93.917969 213.1875 93.917969 187.378906 Z M 93.917969 187.378906"/></g><g clip-path="url(#c)"><path fill="#F24E1E" d="M 93.917969 93.875 C 93.917969 68.070312 114.917969 47.125 140.792969 47.125 L 187.667969 47.125 L 187.667969 140.628906 L 140.792969 140.628906 C 114.917969 140.628906 93.917969 119.683594 93.917969 93.875 Z M 93.917969 93.875"/></g><g clip-path="url(#d)"><path fill="#FF7262" d="M 187.667969 47.125 L 234.542969 47.125 C 260.417969 47.125 281.417969 68.070312 281.417969 93.875 C 281.417969 119.683594 260.417969 140.628906 234.542969 140.628906 L 187.667969 140.628906 Z M 187.667969 47.125"/></g><g clip-path="url(#e)"><path fill="#1ABCFE" d="M 281.417969 187.378906 C 281.417969 213.1875 260.417969 234.132812 234.542969 234.132812 C 208.667969 234.132812 187.667969 213.1875 187.667969 187.378906 C 187.667969 161.574219 208.667969 140.628906 234.542969 140.628906 C 260.417969 140.628906 281.417969 161.574219 281.417969 187.378906 Z M 281.417969 187.378906"/></g></svg>