<svg xmlns="http://www.w3.org/2000/svg" width="375" viewBox="0 0 375 375" height="375" version="1.0"><defs><clipPath id="a"><path d="M 0 24.546875 L 49 24.546875 L 49 221 L 0 221 Z M 0 24.546875"/></clipPath><clipPath id="b"><path d="M 228 24.546875 L 278 24.546875 L 278 221 L 228 221 Z M 228 24.546875"/></clipPath><clipPath id="c"><path d="M 0 24.546875 L 139 24.546875 L 139 172 L 0 172 Z M 0 24.546875"/></clipPath><clipPath id="d"><path d="M 138 24.546875 L 278 24.546875 L 278 172 L 138 172 Z M 138 24.546875"/></clipPath><clipPath id="e"><path d="M 236 203 L 375 203 L 375 350.796875 L 236 350.796875 Z M 236 203"/></clipPath></defs><g clip-path="url(#a)"><path fill="#29B6F6" d="M 0.109375 24.546875 L 48.992188 57.171875 L 48.992188 220.296875 L 0.109375 187.671875 Z M 0.109375 24.546875"/></g><path fill="#0288D1" d="M 374.890625 146.890625 L 326.007812 179.515625 L 326.007812 285.546875 L 374.890625 252.921875 Z M 374.890625 146.890625"/><path fill="#0288D1" d="M 374.890625 32.703125 L 326.007812 65.328125 L 326.007812 122.421875 L 374.890625 89.796875 Z M 374.890625 32.703125"/><g clip-path="url(#b)"><path fill="#0288D1" d="M 277.121094 24.546875 L 228.238281 57.171875 L 228.238281 220.296875 L 277.121094 187.671875 Z M 277.121094 24.546875"/></g><g clip-path="url(#c)"><path fill="#29B6F6" d="M 0.109375 81.640625 L 138.613281 171.359375 L 138.613281 114.265625 L 0.109375 24.546875 Z M 0.109375 81.640625"/></g><g clip-path="url(#d)"><path fill="#0288D1" d="M 277.121094 81.640625 L 138.613281 171.359375 L 138.613281 114.265625 L 277.121094 24.546875 Z M 277.121094 81.640625"/></g><path fill="#0288D1" d="M 277.121094 195.828125 L 138.613281 285.546875 L 138.613281 228.453125 L 277.121094 138.734375 Z M 277.121094 195.828125"/><g clip-path="url(#e)"><path fill="#0288D1" d="M 374.890625 261.078125 L 236.382812 350.796875 L 236.382812 293.703125 L 374.890625 203.984375 Z M 374.890625 261.078125"/></g><path fill="#29B6F6" d="M 236.382812 291.785156 L 138.613281 228.453125 L 138.613281 285.546875 L 236.382812 348.878906 Z M 236.382812 291.785156"/></svg>