<svg xmlns="http://www.w3.org/2000/svg" width="375" viewBox="0 0 375 375" height="375" version="1.0"><path fill="#9B1010" d="M 369.816406 85.339844 L 349.496094 349.496094 L 85.339844 369.816406 Z M 369.816406 85.339844"/><path fill="#B71C1C" d="M 227.578125 227.578125 L 349.496094 349.496094 L 369.816406 85.339844 Z M 227.578125 227.578125"/><path fill="#C62828" d="M 349.445312 24.425781 C 350.816406 25.796875 352.121094 27.230469 353.363281 28.730469 C 354.601562 30.230469 355.773438 31.796875 356.878906 33.421875 C 357.980469 35.046875 359.015625 36.730469 359.984375 38.480469 C 360.949219 40.226562 361.84375 42.03125 362.671875 43.894531 C 363.496094 45.757812 364.253906 47.679688 364.9375 49.65625 C 365.621094 51.632812 366.234375 53.664062 366.773438 55.746094 C 367.3125 57.832031 367.78125 59.964844 368.175781 62.152344 C 368.570312 64.339844 368.894531 66.578125 369.144531 68.863281 C 369.394531 71.148438 369.570312 73.476562 369.671875 75.855469 C 369.773438 78.230469 369.804688 80.652344 369.757812 83.113281 C 369.714844 85.578125 369.597656 88.082031 369.40625 90.625 C 369.214844 93.167969 368.949219 95.75 368.613281 98.367188 C 368.277344 100.984375 367.867188 103.636719 367.382812 106.320312 C 366.902344 109.007812 366.34375 111.722656 365.71875 114.472656 C 365.089844 117.21875 364.394531 119.992188 363.621094 122.796875 C 362.851562 125.597656 362.011719 128.425781 361.101562 131.273438 C 360.191406 134.125 359.210938 136.996094 358.160156 139.886719 C 357.109375 142.78125 355.992188 145.6875 354.808594 148.613281 C 353.621094 151.539062 352.371094 154.480469 351.050781 157.433594 C 349.730469 160.386719 348.347656 163.347656 346.898438 166.324219 C 345.449219 169.296875 343.933594 172.277344 342.359375 175.261719 C 340.78125 178.246094 339.144531 181.238281 337.445312 184.230469 C 335.746094 187.222656 333.988281 190.210938 332.171875 193.203125 C 330.351562 196.195312 328.476562 199.179688 326.546875 202.164062 C 324.613281 205.144531 322.625 208.117188 320.582031 211.085938 C 318.542969 214.050781 316.445312 217.003906 314.300781 219.949219 C 312.152344 222.890625 309.957031 225.820312 307.710938 228.734375 C 305.464844 231.644531 303.167969 234.539062 300.828125 237.417969 C 298.488281 240.292969 296.101562 243.148438 293.671875 245.980469 C 291.242188 248.8125 288.773438 251.617188 286.261719 254.398438 C 283.746094 257.179688 281.195312 259.933594 278.609375 262.65625 C 276.019531 265.378906 273.394531 268.070312 270.734375 270.730469 C 268.074219 273.390625 265.382812 276.015625 262.660156 278.605469 C 259.9375 281.195312 257.183594 283.746094 254.402344 286.257812 C 251.621094 288.769531 248.816406 291.242188 245.984375 293.671875 C 243.152344 296.101562 240.296875 298.484375 237.421875 300.828125 C 234.542969 303.167969 231.648438 305.460938 228.738281 307.707031 C 225.824219 309.953125 222.894531 312.152344 219.953125 314.296875 C 217.011719 316.445312 214.054688 318.539062 211.089844 320.582031 C 208.121094 322.625 205.148438 324.613281 202.167969 326.542969 C 199.183594 328.476562 196.199219 330.351562 193.207031 332.171875 C 190.21875 333.988281 187.226562 335.746094 184.234375 337.445312 C 181.242188 339.144531 178.253906 340.78125 175.265625 342.359375 C 172.28125 343.933594 169.300781 345.449219 166.328125 346.898438 C 163.355469 348.347656 160.390625 349.730469 157.4375 351.050781 C 154.484375 352.371094 151.546875 353.621094 148.621094 354.808594 C 145.695312 355.996094 142.785156 357.113281 139.894531 358.164062 C 137.003906 359.210938 134.132812 360.191406 131.28125 361.105469 C 128.429688 362.015625 125.605469 362.855469 122.800781 363.625 C 120 364.394531 117.226562 365.09375 114.476562 365.722656 C 111.730469 366.347656 109.015625 366.902344 106.328125 367.386719 C 103.640625 367.867188 100.992188 368.277344 98.371094 368.617188 C 95.753906 368.953125 93.175781 369.21875 90.628906 369.410156 C 88.085938 369.601562 85.582031 369.71875 83.121094 369.761719 C 80.65625 369.808594 78.238281 369.777344 75.859375 369.675781 C 73.484375 369.574219 71.152344 369.398438 68.867188 369.148438 C 66.582031 368.898438 64.347656 368.578125 62.160156 368.179688 C 59.972656 367.785156 57.835938 367.316406 55.753906 366.777344 C 53.667969 366.238281 51.636719 365.625 49.660156 364.941406 C 47.683594 364.257812 45.765625 363.503906 43.902344 362.675781 C 42.039062 361.851562 40.230469 360.953125 38.484375 359.988281 C 36.738281 359.023438 35.050781 357.988281 33.425781 356.882812 C 31.800781 355.777344 30.238281 354.605469 28.738281 353.367188 C 27.238281 352.128906 25.800781 350.824219 24.429688 349.453125 C 23.058594 348.082031 21.753906 346.644531 20.515625 345.144531 C 19.277344 343.644531 18.105469 342.082031 17 340.457031 C 15.894531 338.832031 14.859375 337.144531 13.894531 335.398438 C 12.929688 333.652344 12.03125 331.84375 11.207031 329.980469 C 10.378906 328.117188 9.625 326.199219 8.941406 324.222656 C 8.257812 322.246094 7.644531 320.214844 7.101562 318.128906 C 6.5625 316.046875 6.09375 313.910156 5.699219 311.722656 C 5.304688 309.535156 4.984375 307.300781 4.734375 305.015625 C 4.484375 302.730469 4.308594 300.398438 4.207031 298.023438 C 4.101562 295.644531 4.074219 293.226562 4.117188 290.761719 C 4.164062 288.300781 4.28125 285.796875 4.472656 283.253906 C 4.660156 280.707031 4.925781 278.128906 5.261719 275.511719 C 5.601562 272.890625 6.011719 270.242188 6.492188 267.554688 C 6.976562 264.867188 7.53125 262.152344 8.160156 259.40625 C 8.785156 256.65625 9.484375 253.882812 10.253906 251.082031 C 11.023438 248.277344 11.863281 245.453125 12.773438 242.601562 C 13.6875 239.75 14.667969 236.878906 15.714844 233.988281 C 16.765625 231.097656 17.882812 228.1875 19.070312 225.261719 C 20.253906 222.335938 21.507812 219.398438 22.828125 216.445312 C 24.144531 213.492188 25.53125 210.527344 26.980469 207.554688 C 28.429688 204.582031 29.941406 201.601562 31.519531 198.613281 C 33.09375 195.628906 34.730469 192.640625 36.429688 189.648438 C 38.128906 186.65625 39.886719 183.664062 41.707031 180.671875 C 43.523438 177.683594 45.398438 174.695312 47.332031 171.714844 C 49.265625 168.734375 51.25 165.757812 53.292969 162.792969 C 55.335938 159.824219 57.429688 156.871094 59.578125 153.929688 C 61.722656 150.984375 63.921875 148.058594 66.167969 145.144531 C 68.414062 142.230469 70.707031 139.335938 73.046875 136.460938 C 75.390625 133.582031 77.773438 130.730469 80.203125 127.898438 C 82.632812 125.066406 85.105469 122.257812 87.617188 119.476562 C 90.128906 116.695312 92.679688 113.945312 95.269531 111.21875 C 97.859375 108.496094 100.484375 105.804688 103.140625 103.144531 C 105.800781 100.484375 108.492188 97.859375 111.21875 95.273438 C 113.941406 92.683594 116.691406 90.132812 119.472656 87.621094 C 122.253906 85.105469 125.0625 82.636719 127.894531 80.207031 C 130.726562 77.777344 133.578125 75.390625 136.457031 73.050781 C 139.332031 70.710938 142.226562 68.414062 145.140625 66.167969 C 148.050781 63.921875 150.980469 61.726562 153.925781 59.578125 C 156.867188 57.429688 159.820312 55.335938 162.789062 53.292969 C 165.753906 51.25 168.726562 49.265625 171.710938 47.332031 C 174.691406 45.398438 177.679688 43.523438 180.667969 41.707031 C 183.660156 39.886719 186.648438 38.128906 189.640625 36.429688 C 192.632812 34.730469 195.625 33.09375 198.609375 31.519531 C 201.597656 29.941406 204.574219 28.429688 207.546875 26.980469 C 210.523438 25.53125 213.484375 24.144531 216.4375 22.824219 C 219.390625 21.507812 222.332031 20.253906 225.257812 19.066406 C 228.183594 17.882812 231.089844 16.765625 233.984375 15.714844 C 236.875 14.664062 239.746094 13.683594 242.597656 12.773438 C 245.445312 11.863281 248.273438 11.023438 251.074219 10.25 C 253.875 9.480469 256.652344 8.78125 259.398438 8.15625 C 262.144531 7.527344 264.863281 6.972656 267.546875 6.492188 C 270.234375 6.007812 272.886719 5.597656 275.503906 5.261719 C 278.121094 4.921875 280.703125 4.660156 283.246094 4.46875 C 285.789062 4.277344 288.292969 4.160156 290.757812 4.113281 C 293.21875 4.070312 295.640625 4.097656 298.015625 4.203125 C 300.394531 4.304688 302.722656 4.480469 305.007812 4.730469 C 307.292969 4.976562 309.527344 5.300781 311.714844 5.695312 C 313.902344 6.089844 316.039062 6.558594 318.125 7.097656 C 320.207031 7.640625 322.238281 8.25 324.214844 8.933594 C 326.191406 9.617188 328.113281 10.375 329.976562 11.199219 C 331.839844 12.027344 333.644531 12.921875 335.390625 13.890625 C 337.136719 14.855469 338.824219 15.890625 340.449219 16.996094 C 342.074219 18.097656 343.636719 19.269531 345.140625 20.507812 C 346.640625 21.75 348.074219 23.054688 349.445312 24.425781 Z M 349.445312 24.425781"/><path fill="#E53935" d="M 44.703125 115.820312 L 115.820312 44.703125 L 197.097656 4.0625 L 258.058594 44.703125 L 227.578125 136.140625 L 136.140625 217.417969 L 44.703125 247.898438 L 4.0625 186.9375 Z M 44.703125 115.820312"/><path fill="#FF5252" d="M 258.058594 44.703125 L 197.097656 4.0625 L 308.855469 4.0625 Z M 369.816406 95.5 L 258.058594 44.703125 L 227.578125 136.140625 Z M 136.140625 217.417969 L 270.605469 270.605469 L 227.578125 136.140625 Z M 44.703125 247.898438 L 85.339844 369.816406 L 136.140625 217.417969 Z M 4.0625 186.9375 L 4.0625 298.695312 L 44.703125 247.898438 Z M 4.0625 186.9375"/></svg>