<svg xmlns="http://www.w3.org/2000/svg" width="375" viewBox="0 0 375 375" height="375" version="1.0"><path fill="#F06292" d="M 322.925781 210.675781 C 309.855469 210.742188 298.535156 213.878906 289.046875 218.566406 C 285.582031 211.636719 282.0625 205.539062 281.476562 201.007812 C 280.789062 195.722656 279.988281 192.558594 280.820312 186.257812 C 281.65625 179.957031 285.300781 171.03125 285.25 170.359375 C 285.199219 169.6875 284.433594 166.484375 276.894531 166.425781 C 269.355469 166.375 262.90625 167.878906 262.148438 169.867188 C 261.394531 171.855469 259.941406 176.335938 259.039062 181.011719 C 257.722656 187.847656 243.988281 212.238281 236.195312 224.992188 C 233.644531 220.011719 231.476562 215.625 231.027344 212.15625 C 230.339844 206.867188 229.539062 203.703125 230.371094 197.402344 C 231.207031 191.105469 234.851562 182.179688 234.800781 181.507812 C 234.75 180.835938 233.984375 177.628906 226.445312 177.570312 C 218.90625 177.519531 212.457031 179.023438 211.699219 181.011719 C 210.945312 183.003906 210.128906 187.652344 208.589844 192.160156 C 207.042969 196.65625 188.796875 237.335938 184.011719 247.886719 C 181.570312 253.261719 179.457031 257.578125 177.960938 260.519531 C 177.953125 260.511719 177.953125 260.503906 177.953125 260.503906 C 177.953125 260.503906 177.859375 260.699219 177.703125 261.03125 C 176.421875 263.539062 175.664062 264.925781 175.664062 264.925781 C 175.664062 264.925781 175.671875 264.941406 175.691406 264.976562 C 174.671875 266.820312 173.582031 268.527344 173.046875 268.527344 C 172.671875 268.527344 171.917969 263.625 173.207031 256.890625 C 175.929688 242.777344 182.445312 220.773438 182.386719 220.011719 C 182.355469 219.617188 183.601562 215.785156 178.128906 213.777344 C 172.808594 211.832031 170.914062 215.078125 170.429688 215.085938 C 169.960938 215.097656 169.613281 216.234375 169.613281 216.234375 C 169.613281 216.234375 175.539062 191.488281 158.308594 191.488281 C 147.535156 191.488281 132.609375 203.277344 125.257812 213.964844 C 120.617188 216.5 110.683594 221.921875 100.152344 227.710938 C 96.105469 229.941406 91.976562 232.210938 88.058594 234.371094 C 87.796875 234.070312 87.523438 233.78125 87.25 233.484375 C 66.351562 211.183594 27.734375 195.414062 29.367188 165.429688 C 29.960938 154.53125 33.75 125.828125 103.585938 91.023438 C 160.792969 62.507812 206.59375 70.355469 214.503906 87.742188 C 225.808594 112.589844 190.027344 158.765625 130.621094 165.429688 C 107.988281 167.972656 96.066406 159.1875 93.097656 155.925781 C 89.980469 152.480469 89.511719 152.328125 88.347656 152.972656 C 86.453125 154.027344 87.652344 157.0625 88.347656 158.875 C 90.125 163.492188 97.398438 171.679688 109.808594 175.757812 C 120.726562 179.347656 147.304688 181.3125 179.4375 168.871094 C 215.441406 154.945312 243.546875 116.195312 235.285156 83.8125 C 226.886719 50.878906 172.289062 40.046875 120.617188 58.410156 C 89.828125 69.34375 56.535156 86.5 32.59375 108.894531 C 4.132812 135.519531 -0.40625 158.703125 1.464844 168.386719 C 8.109375 202.804688 55.523438 225.214844 74.511719 241.816406 C 73.578125 242.335938 72.691406 242.820312 71.894531 243.261719 C 62.375 247.972656 26.230469 266.898438 17.1875 286.882812 C 6.929688 309.558594 18.820312 325.832031 26.6875 328.023438 C 51.070312 334.808594 76.09375 322.597656 89.546875 302.535156 C 102.992188 282.480469 101.351562 256.355469 95.179688 244.433594 C 95.105469 244.289062 95.019531 244.144531 94.941406 243.992188 C 97.398438 242.539062 99.90625 241.058594 102.386719 239.597656 C 107.230469 236.75 111.992188 234.097656 116.113281 231.851562 C 113.800781 238.179688 112.109375 245.769531 111.234375 256.730469 C 110.199219 269.601562 115.476562 286.238281 122.378906 292.785156 C 125.417969 295.667969 129.074219 295.734375 131.386719 295.734375 C 139.417969 295.734375 143.082031 289.050781 147.117188 281.144531 C 152.0625 271.453125 156.457031 260.164062 156.457031 260.164062 C 156.457031 260.164062 150.949219 290.648438 165.960938 290.648438 C 171.433594 290.648438 176.929688 283.550781 179.386719 279.9375 C 179.394531 279.980469 179.394531 279.996094 179.394531 279.996094 C 179.394531 279.996094 179.539062 279.757812 179.820312 279.292969 C 180.390625 278.425781 180.714844 277.871094 180.714844 277.871094 C 180.714844 277.871094 180.722656 277.8125 180.738281 277.710938 C 182.941406 273.894531 187.820312 265.1875 195.128906 250.828125 C 204.578125 232.277344 213.636719 209.035156 213.636719 209.035156 C 213.636719 209.035156 214.480469 214.714844 217.242188 224.117188 C 218.863281 229.640625 222.316406 235.753906 225.042969 241.621094 C 222.851562 244.664062 221.507812 246.40625 221.507812 246.40625 C 221.507812 246.40625 221.515625 246.441406 221.542969 246.5 C 219.792969 248.832031 217.828125 251.339844 215.769531 253.789062 C 208.308594 262.671875 199.429688 272.824219 198.238281 275.746094 C 196.835938 279.199219 197.167969 281.730469 199.878906 283.78125 C 201.859375 285.269531 205.378906 285.507812 209.058594 285.261719 C 215.761719 284.808594 220.472656 283.144531 222.800781 282.132812 C 226.429688 280.847656 230.652344 278.832031 234.613281 275.917969 C 241.929688 270.535156 246.339844 262.839844 245.917969 252.640625 C 245.679688 247.019531 243.894531 241.453125 241.625 236.195312 C 242.289062 235.246094 242.949219 234.277344 243.621094 233.308594 C 255.15625 216.4375 264.105469 197.90625 264.105469 197.90625 C 264.105469 197.90625 264.945312 203.585938 267.707031 212.988281 C 269.101562 217.738281 271.863281 222.933594 274.34375 228.019531 C 263.5 236.835938 256.777344 247.078125 254.441406 253.796875 C 250.125 266.226562 253.507812 271.851562 259.847656 273.136719 C 262.71875 273.714844 266.78125 272.398438 269.832031 271.105469 C 273.632812 269.847656 278.195312 267.746094 282.460938 264.609375 C 289.78125 259.226562 296.816406 251.695312 296.390625 241.503906 C 296.195312 236.859375 294.9375 232.253906 293.230469 227.832031 C 302.425781 223.996094 314.324219 221.871094 329.484375 223.640625 C 362.011719 227.441406 368.386719 247.75 367.171875 256.253906 C 365.945312 264.753906 359.128906 269.429688 356.84375 270.839844 C 354.566406 272.253906 353.871094 272.746094 354.054688 273.792969 C 354.335938 275.3125 355.390625 275.261719 357.335938 274.929688 C 360.015625 274.480469 374.410156 268.019531 375.03125 252.324219 C 375.804688 232.378906 356.726562 210.496094 322.925781 210.675781 Z M 72.234375 295.214844 C 61.457031 306.972656 46.414062 311.410156 39.957031 307.671875 C 32.984375 303.632812 35.75 286.324219 48.964844 273.84375 C 57.019531 266.242188 67.421875 259.238281 74.324219 254.925781 C 75.898438 253.984375 78.199219 252.597656 81.003906 250.914062 C 81.472656 250.648438 81.734375 250.503906 81.734375 250.503906 L 81.726562 250.488281 C 82.269531 250.164062 82.824219 249.832031 83.394531 249.484375 C 88.210938 267.246094 83.546875 282.878906 72.234375 295.214844 Z M 150.722656 241.851562 C 146.972656 251 139.121094 274.414062 134.335938 273.152344 C 130.230469 272.074219 127.730469 254.28125 133.519531 236.765625 C 136.425781 227.949219 142.648438 217.417969 146.300781 213.328125 C 152.183594 206.746094 158.660156 204.597656 160.230469 207.265625 C 162.226562 210.667969 153.074219 236.113281 150.722656 241.851562 Z M 215.558594 272.796875 C 213.96875 273.628906 212.507812 274.148438 211.835938 273.75 C 211.335938 273.453125 212.492188 272.355469 212.492188 272.355469 C 212.492188 272.355469 220.597656 263.625 223.792969 259.652344 C 225.65625 257.339844 227.804688 254.59375 230.152344 251.535156 C 230.167969 251.839844 230.175781 252.144531 230.175781 252.445312 C 230.160156 262.902344 220.0625 269.957031 215.558594 272.796875 Z M 265.507812 261.40625 C 264.316406 260.5625 264.519531 257.832031 268.421875 249.324219 C 269.953125 245.984375 273.453125 240.363281 279.519531 234.988281 C 280.226562 237.199219 280.652344 239.316406 280.644531 241.289062 C 280.566406 254.449219 271.183594 259.363281 265.507812 261.40625 Z M 265.507812 261.40625"/></svg>